<?xml version="1.0" encoding="UTF-8" standalone="no"?>
<svg
   width="266"
   height="78"
   viewBox="0 0 266 78"
   fill="none"
   version="1.1"
   id="svg59"
   sodipodi:docname="logo_4.svg"
   inkscape:version="1.1 (c68e22c387, 2021-05-23)"
   xmlns:inkscape="http://www.inkscape.org/namespaces/inkscape"
   xmlns:sodipodi="http://sodipodi.sourceforge.net/DTD/sodipodi-0.dtd"
   xmlns="http://www.w3.org/2000/svg"
   xmlns:svg="http://www.w3.org/2000/svg">
  <sodipodi:namedview
     id="namedview61"
     pagecolor="#ffffff"
     bordercolor="#666666"
     borderopacity="1.0"
     inkscape:pageshadow="2"
     inkscape:pageopacity="0.0"
     inkscape:pagecheckerboard="0"
     showgrid="false"
     inkscape:zoom="2"
     inkscape:cx="97.75"
     inkscape:cy="99.5"
     inkscape:window-width="1280"
     inkscape:window-height="968"
     inkscape:window-x="-4"
     inkscape:window-y="-4"
     inkscape:window-maximized="1"
     inkscape:current-layer="svg59" />
  <path
     d="m -103.129,12.148 c 0.096,0.544 0.16,0.928 0.192,1.152 0.064,0.192 0.096,0.464 0.096,0.816 0,1.056 -0.24,2.048 -0.72,2.976 -0.448,0.896 -1.072,1.536 -1.872,1.92 -0.64,-0.864 -1.424,-1.6 -2.352,-2.208 -0.928,-0.64 -1.952,-1.152 -3.072,-1.536 -1.088,-0.416 -2.224,-0.72 -3.408,-0.912 -1.184,-0.192 -2.336,-0.288 -3.456,-0.288 -1.12,0 -2.176,0.096 -3.168,0.288 -0.96,0.16 -1.824,0.4 -2.592,0.72 -0.736,0.288 -1.328,0.656 -1.776,1.104 -0.416,0.448 -0.624,0.96 -0.624,1.536 0.096,0.704 0.528,1.424 1.296,2.16 0.768,0.704 1.712,1.408 2.832,2.112 1.12,0.672 2.352,1.344 3.696,2.016 1.376,0.672 2.72,1.312 4.032,1.92 1.632,0.768 3.04,1.488 4.224,2.16 1.184,0.64 2.16,1.36 2.928,2.16 0.768,0.768 1.344,1.648 1.728,2.64 0.384,0.992 0.576,2.192 0.576,3.6 0,1.632 -0.272,3.168 -0.816,4.608 -0.544,1.408 -1.344,2.64 -2.4,3.696 -1.024,1.056 -2.272,1.872 -3.744,2.448 -1.472,0.608 -3.12,0.912 -4.944,0.912 -1.792,0 -3.728,-0.272 -5.808,-0.816 -2.08,-0.544 -4.032,-1.296 -5.856,-2.256 -1.792,-0.928 -3.296,-2 -4.512,-3.216 -1.184,-1.248 -1.776,-2.56 -1.776,-3.936 0,-0.64 0.176,-1.456 0.528,-2.448 0.384,-0.992 1.056,-2.032 2.016,-3.12 0.096,0.96 0.608,2.096 1.536,3.408 0.96,1.312 2.384,2.528 4.272,3.648 1.76,1.024 3.568,1.776 5.424,2.256 1.888,0.448 3.648,0.672 5.28,0.672 1.792,0 3.248,-0.224 4.368,-0.672 1.12,-0.448 2,-0.976 2.64,-1.584 0.64,-0.64 1.088,-1.28 1.344,-1.92 0.256,-0.64 0.4,-1.152 0.432,-1.536 -0.032,-0.64 -0.336,-1.248 -0.912,-1.824 -0.544,-0.608 -1.296,-1.184 -2.256,-1.728 -0.928,-0.576 -2.016,-1.152 -3.264,-1.728 -1.248,-0.576 -2.544,-1.152 -3.888,-1.728 -2.016,-0.896 -3.76,-1.728 -5.232,-2.496 -1.44,-0.8 -2.64,-1.6 -3.6,-2.4 -0.928,-0.832 -1.616,-1.696 -2.064,-2.592 -0.416,-0.896 -0.624,-1.92 -0.624,-3.072 0,-1.792 0.544,-3.488 1.632,-5.088 1.088,-1.6 2.656,-2.816 4.704,-3.648 1.024,-0.448 2.112,-0.768 3.264,-0.96 1.184,-0.192 2.336,-0.288 3.456,-0.288 2.112,0 4.176,0.288 6.192,0.864 2.016,0.576 4.032,1.312 6.048,2.208 z m 1.745,29.28 c 0,-1.408 0.336,-3.376 1.008,-5.904 0.672,-2.56 1.616,-5.536 2.832,-8.928 1.984,-5.408 3.84,-9.904 5.568,-13.488 1.76,-3.616 3.472,-6.432 5.136,-8.448 0.384,0.064 0.848,0.224 1.392,0.48 0.576,0.256 1.136,0.544 1.68,0.864 0.544,0.288 1.024,0.592 1.44,0.912 0.448,0.32 0.736,0.576 0.864,0.768 -2.496,2.944 -4.688,6.112 -6.576,9.504 -1.888,3.392 -3.616,7.28 -5.184,11.664 -1.344,3.776 -2.368,7.184 -3.072,10.224 -0.704,3.008 -1.056,5.52 -1.056,7.536 0,0.544 0,0.88 0,1.008 0,0.128 0.016,0.256 0.048,0.384 -0.448,-0.064 -0.832,-0.176 -1.152,-0.336 -0.32,-0.16 -0.528,-0.352 -0.624,-0.576 -0.064,-0.16 -0.24,-0.4 -0.528,-0.72 -0.288,-0.288 -0.544,-0.512 -0.768,-0.672 -0.288,-0.192 -0.528,-0.688 -0.72,-1.488 -0.192,-0.832 -0.288,-1.76 -0.288,-2.784 z m 16.868,4.752 c -1.824,-0.192 -3.28,-0.992 -4.368,-2.4 -1.088,-1.408 -1.632,-3.2 -1.632,-5.376 0,-1.28 0.192,-2.608 0.576,-3.984 0.384,-1.376 0.928,-2.704 1.632,-3.984 0.704,-1.312 1.536,-2.544 2.496,-3.696 0.96,-1.152 2,-2.144 3.12,-2.976 1.76,-1.312 3.408,-1.968 4.944,-1.968 1.024,0.544 2.032,1.68 3.024,3.408 0.16,0 0.304,0 0.432,0 0.128,-0.032 0.272,-0.048 0.432,-0.048 1.696,0 2.544,1.504 2.544,4.512 0,2.016 -0.336,3.936 -1.008,5.76 -0.64,1.792 -1.552,3.424 -2.736,4.896 -1.152,1.472 -2.544,2.72 -4.176,3.744 -1.6,0.992 -3.36,1.696 -5.28,2.112 z m 2.448,-15.12 c -0.544,0.736 -1.056,1.536 -1.536,2.4 -0.48,0.864 -0.896,1.744 -1.248,2.64 -0.352,0.864 -0.624,1.712 -0.816,2.544 -0.192,0.8 -0.288,1.52 -0.288,2.16 0,0.768 0.128,1.504 0.384,2.208 0.256,0.704 0.544,1.104 0.864,1.2 1.44,-0.32 2.752,-0.912 3.936,-1.776 1.216,-0.896 2.256,-2 3.12,-3.312 0.896,-1.312 1.584,-2.8 2.064,-4.464 0.512,-1.664 0.768,-3.44 0.768,-5.328 0,-0.832 -0.048,-1.488 -0.144,-1.968 -0.096,-0.48 -0.256,-0.896 -0.48,-1.248 -1.408,0.416 -2.672,1.088 -3.792,2.016 -1.088,0.928 -2.032,1.904 -2.832,2.928 z m 15.439,-4.944 c -0.16,-0.192 -0.304,-0.592 -0.432,-1.2 -0.128,-0.64 -0.192,-1.184 -0.192,-1.632 0.832,0.064 1.632,0.128 2.4,0.192 0.768,0.032 1.472,0.064 2.112,0.096 0.48,-0.96 0.992,-1.904 1.536,-2.832 0.576,-0.96 1.12,-1.824 1.632,-2.592 0.544,-0.8 1.04,-1.472 1.488,-2.016 0.48,-0.544 0.848,-0.896 1.104,-1.056 0.32,0 0.72,0.064 1.2,0.192 0.512,0.096 1.024,0.24 1.536,0.432 0.512,0.16 0.976,0.336 1.392,0.528 0.416,0.192 0.704,0.384 0.864,0.576 -0.96,1.216 -1.792,2.352 -2.496,3.408 -0.672,1.024 -1.408,2.208 -2.208,3.552 0.64,0 1.28,-0.016 1.92,-0.048 0.672,-0.032 1.344,-0.08 2.016,-0.144 0.16,0.16 0.288,0.368 0.384,0.624 0.096,0.224 0.144,0.464 0.144,0.72 -1.568,0.576 -3.472,0.896 -5.712,0.96 -0.8,1.536 -1.52,3.072 -2.16,4.608 -0.608,1.504 -1.136,2.96 -1.584,4.368 -0.416,1.408 -0.752,2.736 -1.008,3.984 -0.224,1.248 -0.336,2.368 -0.336,3.36 0,1.408 0.528,2.192 1.584,2.352 0.96,-0.128 1.872,-0.368 2.736,-0.72 0.864,-0.352 1.632,-0.8 2.304,-1.344 0.192,0.288 0.304,0.528 0.336,0.72 -0.192,0.288 -0.528,0.624 -1.008,1.008 -0.448,0.384 -0.944,0.752 -1.488,1.104 -0.544,0.384 -1.072,0.704 -1.584,0.96 -0.512,0.256 -0.896,0.4 -1.152,0.432 -0.8,-0.032 -1.6,-0.208 -2.4,-0.528 -0.8,-0.32 -1.536,-0.72 -2.208,-1.2 -0.64,-0.48 -1.168,-1.008 -1.584,-1.584 -0.416,-0.608 -0.624,-1.2 -0.624,-1.776 0,-0.768 0.096,-1.728 0.288,-2.88 0.224,-1.184 0.528,-2.464 0.912,-3.84 0.384,-1.376 0.832,-2.816 1.344,-4.32 0.512,-1.504 1.072,-2.992 1.68,-4.464 z m 13.995,17.568 c 0,-1.12 0.112,-2.432 0.336,-3.936 0.224,-1.536 0.544,-3.168 0.96,-4.896 0.448,-1.728 0.96,-3.536 1.536,-5.424 0.608,-1.888 1.28,-3.776 2.016,-5.664 0.64,-1.696 1.376,-3.408 2.208,-5.136 0.864,-1.728 1.792,-3.424 2.784,-5.088 0.992,-1.664 2.016,-3.248 3.072,-4.752 1.088,-1.504 2.176,-2.88 3.264,-4.128 0.512,0 1.056,0.064 1.632,0.192 0.608,0.128 1.184,0.304 1.728,0.528 0.576,0.192 1.088,0.432 1.536,0.72 0.48,0.288 0.864,0.576 1.152,0.864 -2.4,2.464 -4.56,4.96 -6.48,7.488 -1.92,2.496 -3.44,4.848 -4.56,7.056 -0.608,1.216 -1.168,2.352 -1.68,3.408 -0.48,1.056 -0.928,2.112 -1.344,3.168 -0.416,1.024 -0.8,2.064 -1.152,3.12 -0.32,1.024 -0.624,2.112 -0.912,3.264 6.144,-7.84 10.704,-11.76 13.68,-11.76 0.832,0 1.728,0.272 2.688,0.816 0.96,0.544 1.808,1.28 2.544,2.208 -0.992,1.088 -2.016,2.4 -3.072,3.936 -1.056,1.536 -2.032,3.088 -2.928,4.656 -0.864,1.536 -1.584,2.976 -2.16,4.32 -0.544,1.312 -0.816,2.288 -0.816,2.928 0,0.32 0.048,0.544 0.144,0.672 0.096,0.096 0.304,0.144 0.624,0.144 0.48,0 0.864,-0.064 1.152,-0.192 0.288,-0.128 0.464,-0.192 0.528,-0.192 0.16,0.256 0.256,0.432 0.288,0.528 0.032,0.096 0.048,0.176 0.048,0.24 0,0.128 -0.192,0.32 -0.576,0.576 -0.384,0.224 -0.848,0.464 -1.392,0.72 -0.512,0.224 -1.024,0.432 -1.536,0.624 -0.512,0.192 -0.896,0.288 -1.152,0.288 -0.32,0 -0.64,-0.096 -0.96,-0.288 -0.32,-0.16 -0.608,-0.384 -0.864,-0.672 -0.224,-0.288 -0.416,-0.608 -0.576,-0.96 -0.128,-0.352 -0.192,-0.72 -0.192,-1.104 0,-0.48 0.128,-1.184 0.384,-2.112 0.288,-0.96 0.672,-2.064 1.152,-3.312 0.48,-1.28 1.056,-2.672 1.728,-4.176 0.672,-1.504 1.392,-3.04 2.16,-4.608 0,-0.128 -0.064,-0.192 -0.192,-0.192 -0.096,0 -0.352,0.128 -0.768,0.384 -0.384,0.256 -0.752,0.512 -1.104,0.768 -1.152,0.864 -2.32,1.936 -3.504,3.216 -1.152,1.248 -2.288,2.624 -3.408,4.128 -1.088,1.504 -2.128,3.104 -3.12,4.8 -0.96,1.664 -1.792,3.344 -2.496,5.04 -0.096,0.224 -0.24,0.432 -0.432,0.624 -0.192,0.192 -0.352,0.288 -0.48,0.288 -0.096,0 -0.24,-0.112 -0.432,-0.336 -0.16,-0.224 -0.32,-0.512 -0.48,-0.864 -0.128,-0.32 -0.256,-0.656 -0.384,-1.008 -0.128,-0.352 -0.192,-0.656 -0.192,-0.912 z"
     fill="#ab7b60"
     id="path38"
     style="filter:url(#filter0_d)" />
  <defs
     id="defs57">
    <rect
       x="130.5"
       y="-165"
       width="124.5"
       height="40"
       id="rect37294" />
    <rect
       x="-28.284271"
       y="-166.8772"
       width="294.15642"
       height="73.539105"
       id="rect3839" />
    <filter
       id="filter0_d"
       x="19.2613"
       y="12.16"
       width="239.113"
       height="65.168"
       filterUnits="userSpaceOnUse"
       color-interpolation-filters="sRGB">
      <feFlood
         flood-opacity="0"
         result="BackgroundImageFix"
         id="feFlood42" />
      <feColorMatrix
         in="SourceAlpha"
         type="matrix"
         values="0 0 0 0 0 0 0 0 0 0 0 0 0 0 0 0 0 0 127 0"
         id="feColorMatrix44" />
      <feOffset
         dy="4"
         id="feOffset46" />
      <feGaussianBlur
         stdDeviation="2"
         id="feGaussianBlur48" />
      <feColorMatrix
         type="matrix"
         values="0 0 0 0 0 0 0 0 0 0 0 0 0 0 0 0 0 0 0.25 0"
         id="feColorMatrix50" />
      <feBlend
         mode="normal"
         in2="BackgroundImageFix"
         result="effect1_dropShadow"
         id="feBlend52" />
      <feBlend
         mode="normal"
         in="SourceGraphic"
         in2="effect1_dropShadow"
         result="shape"
         id="feBlend54" />
    </filter>
    <rect
       x="-28.284271"
       y="-166.8772"
       width="294.15642"
       height="73.539105"
       id="rect39142" />
    <rect
       x="-28.284271"
       y="-166.8772"
       width="294.15643"
       height="73.539108"
       id="rect39142-3" />
    <rect
       x="-28.284271"
       y="-166.8772"
       width="294.15643"
       height="73.539108"
       id="rect39142-0" />
    <rect
       x="-28.284271"
       y="-166.8772"
       width="294.15643"
       height="73.539108"
       id="rect39142-0-9" />
    <rect
       x="-28.284271"
       y="-166.8772"
       width="294.15643"
       height="73.539108"
       id="rect39142-0-9-0" />
    <rect
       x="-28.284271"
       y="-166.8772"
       width="294.15643"
       height="73.539108"
       id="rect39142-0-9-0-5" />
    <rect
       x="-28.284271"
       y="-166.8772"
       width="294.15643"
       height="73.539108"
       id="rect39142-0-9-0-5-7" />
    <rect
       x="-28.284271"
       y="-166.8772"
       width="294.15643"
       height="73.539108"
       id="rect39142-0-4" />
    <rect
       x="-28.284271"
       y="-166.8772"
       width="294.15643"
       height="73.539108"
       id="rect39142-0-9-0-5-7-2" />
    <rect
       x="-28.284271"
       y="-166.8772"
       width="294.15643"
       height="73.539108"
       id="rect39142-0-9-8" />
    <rect
       x="-28.284271"
       y="-166.8772"
       width="294.15643"
       height="73.539108"
       id="rect39142-0-4-6" />
  </defs>
  <text
     xml:space="preserve"
     id="text37292"
     style="line-height:1.25;font-family:sans-serif;font-size:24px;-inkscape-font-specification:'sans-serif, Bold';font-variant-ligatures:none;font-weight:bold;white-space:pre;shape-inside:url(#rect37294)" />
  <text
     xml:space="preserve"
     id="text39140-92-8"
     style="font-style:normal;font-variant:normal;font-weight:bold;font-stretch:normal;font-size:24px;line-height:1.25;font-family:'Segoe Script';-inkscape-font-specification:'Segoe Script, Bold';font-variant-ligatures:none;font-variant-caps:normal;font-variant-numeric:normal;font-variant-east-asian:normal;white-space:pre;shape-inside:url(#rect39142-0-4);fill:#222222;fill-opacity:1"
     transform="matrix(1.6434152,0,0,2.3288039,55.937895,394.13267)"><tspan
       x="-28.285156"
       y="-145.74045"
       id="tspan191594">Comfy</tspan></text>
  <text
     xml:space="preserve"
     id="text39140-92-8-0"
     style="font-style:normal;font-variant:normal;font-weight:bold;font-stretch:normal;font-size:24px;line-height:1.25;font-family:'Segoe Script';-inkscape-font-specification:'Segoe Script, Bold';font-variant-ligatures:none;font-variant-caps:normal;font-variant-numeric:normal;font-variant-east-asian:normal;white-space:pre;shape-inside:url(#rect39142-0-4-6);fill:#ab7b60;fill-opacity:1"
     transform="matrix(1.6308263,0,0,2.3288039,187.54071,395.57357)"><tspan
       x="-28.285156"
       y="-145.74045"
       id="tspan191596">Brew</tspan></text>
</svg>
