<?xml version="1.0" encoding="UTF-8" standalone="no"?>
<svg
   width="266"
   height="78"
   viewBox="0 0 266 78"
   fill="none"
   version="1.1"
   id="svg59"
   sodipodi:docname="logo_2.svg"
   inkscape:version="1.1 (c68e22c387, 2021-05-23)"
   xmlns:inkscape="http://www.inkscape.org/namespaces/inkscape"
   xmlns:sodipodi="http://sodipodi.sourceforge.net/DTD/sodipodi-0.dtd"
   xmlns="http://www.w3.org/2000/svg"
   xmlns:svg="http://www.w3.org/2000/svg">
  <sodipodi:namedview
     id="namedview61"
     pagecolor="#ffffff"
     bordercolor="#666666"
     borderopacity="1.0"
     inkscape:pageshadow="2"
     inkscape:pageopacity="0.0"
     inkscape:pagecheckerboard="0"
     showgrid="false"
     inkscape:zoom="2"
     inkscape:cx="97.75"
     inkscape:cy="-60.5"
     inkscape:window-width="1280"
     inkscape:window-height="968"
     inkscape:window-x="-4"
     inkscape:window-y="-4"
     inkscape:window-maximized="1"
     inkscape:current-layer="svg59" />
  <path
     d="m 23.2613,42.592 c 0,-2.24 0.256,-4.432 0.768,-6.576 0.544,-2.176 1.296,-4.224 2.256,-6.144 0.96,-1.952 2.096,-3.728 3.408,-5.328 1.344,-1.632 2.8,-3.04 4.368,-4.224 1.6,-1.184 3.296,-2.096 5.088,-2.736 1.792,-0.672 3.632,-1.008 5.52,-1.008 2.208,0 3.92,0.464 5.136,1.392 1.248,0.928 1.872,2.224 1.872,3.888 0,0.64 -0.096,1.296 -0.288,1.968 -0.16,0.672 -0.416,1.344 -0.768,2.016 -0.32,0.64 -0.704,1.264 -1.152,1.872 -0.448,0.608 -0.944,1.136 -1.488,1.584 -0.832,-0.128 -1.552,-0.496 -2.16,-1.104 -0.608,-0.64 -0.992,-1.376 -1.152,-2.208 1.12,-0.928 2,-1.888 2.64,-2.88 0.672,-1.024 1.008,-1.952 1.008,-2.784 0,-1.408 -0.88,-2.112 -2.64,-2.112 -0.736,0 -1.504,0.16 -2.304,0.48 -0.768,0.288 -1.552,0.704 -2.352,1.248 -0.8,0.544 -1.584,1.2 -2.352,1.968 -0.736,0.768 -1.424,1.616 -2.064,2.544 -4.448,6.4 -6.672,12.944 -6.672,19.632 0,2.368 0.368,4.272 1.104,5.712 0.736,1.44 1.712,2.288 2.928,2.544 1.376,-0.32 3.12,-1.2 5.232,-2.64 2.112,-1.44 4.416,-3.312 6.912,-5.616 0.32,0.32 0.512,0.656 0.576,1.008 -0.928,1.216 -1.888,2.384 -2.88,3.504 -0.992,1.12 -1.984,2.144 -2.976,3.072 -0.96,0.928 -1.92,1.744 -2.88,2.448 -0.928,0.704 -1.792,1.248 -2.592,1.632 -3.968,-0.064 -6.976,-1.2 -9.024,-3.408 -2.048,-2.208 -3.072,-5.456 -3.072,-9.744 z M 55.4997,53.68 c -1.824,-0.192 -3.28,-0.992 -4.368,-2.4 -1.088,-1.408 -1.632,-3.2 -1.632,-5.376 0,-1.28 0.192,-2.608 0.576,-3.984 0.384,-1.376 0.928,-2.704 1.632,-3.984 0.704,-1.312 1.536,-2.544 2.496,-3.696 0.96,-1.152 2,-2.144 3.12,-2.976 1.76,-1.312 3.408,-1.968 4.944,-1.968 1.024,0.544 2.032,1.68 3.024,3.408 h 0.432 c 0.128,-0.032 0.272,-0.048 0.432,-0.048 1.696,0 2.544,1.504 2.544,4.512 0,2.016 -0.336,3.936 -1.008,5.76 -0.64,1.792 -1.552,3.424 -2.736,4.896 -1.152,1.472 -2.544,2.72 -4.176,3.744 -1.6,0.992 -3.36,1.696 -5.28,2.112 z m 2.448,-15.12 c -0.544,0.736 -1.056,1.536 -1.536,2.4 -0.48,0.864 -0.896,1.744 -1.248,2.64 -0.352,0.864 -0.624,1.712 -0.816,2.544 -0.192,0.8 -0.288,1.52 -0.288,2.16 0,0.768 0.128,1.504 0.384,2.208 0.256,0.704 0.544,1.104 0.864,1.2 1.44,-0.32 2.752,-0.912 3.936,-1.776 1.216,-0.896 2.256,-2 3.12,-3.312 0.896,-1.312 1.584,-2.8 2.064,-4.464 0.512,-1.664 0.768,-3.44 0.768,-5.328 0,-0.832 -0.048,-1.488 -0.144,-1.968 -0.096,-0.48 -0.256,-0.896 -0.48,-1.248 -1.408,0.416 -2.672,1.088 -3.792,2.016 -1.088,0.928 -2.032,1.904 -2.832,2.928 z m 40.8195,-1.296 c -0.512,0.032 -1.136,0.368 -1.872,1.008 -0.736,0.608 -1.536,1.408 -2.4,2.4 -0.832,0.96 -1.712,2.032 -2.64,3.216 -0.896,1.184 -1.776,2.368 -2.64,3.552 -0.832,1.152 -1.616,2.24 -2.352,3.264 -0.736,1.024 -1.36,1.84 -1.872,2.448 -0.704,-0.288 -1.312,-0.704 -1.824,-1.248 -0.512,-0.576 -0.88,-1.28 -1.104,-2.112 0.16,-0.992 0.384,-2.016 0.672,-3.072 0.288,-1.088 0.656,-2.208 1.104,-3.36 0.48,-1.152 1.056,-2.352 1.728,-3.6 0.704,-1.28 1.552,-2.624 2.544,-4.032 -0.48,0.032 -1.136,0.384 -1.968,1.056 -0.832,0.64 -1.728,1.488 -2.688,2.544 -0.96,1.024 -1.952,2.192 -2.976,3.504 -1.024,1.28 -1.984,2.544 -2.88,3.792 -1.184,1.664 -2.176,3.12 -2.976,4.368 -0.768,1.248 -1.328,1.984 -1.68,2.208 -0.832,-0.608 -1.408,-1.264 -1.728,-1.968 -0.32,-0.704 -0.56,-1.488 -0.72,-2.352 0.032,-0.768 0.144,-1.728 0.336,-2.88 0.224,-1.152 0.528,-2.336 0.912,-3.552 0.736,-2.336 1.68,-4.656 2.832,-6.96 1.184,-2.304 2.32,-4.416 3.408,-6.336 0.896,0.192 -0.704,-0.416 0,0 0.736,0.416 3.904,1.936 4.704,2.736 -0.32,0.992 -0.816,2.048 -1.488,3.168 -0.672,1.088 -1.376,2.24 -2.112,3.456 -0.736,1.216 -1.408,2.464 -2.016,3.744 -0.608,1.28 -1.008,2.576 -1.2,3.888 0.896,-1.28 1.952,-2.752 3.168,-4.416 1.248,-1.664 2.512,-3.232 3.792,-4.704 1.312,-1.472 2.608,-2.72 3.888,-3.744 1.28,-1.024 2.432,-1.536 3.456,-1.536 0.384,0 0.8,0.064 1.248,0.192 0.448,0.128 0.864,0.288 1.248,0.48 0.384,0.192 0.704,0.384 0.96,0.576 0.256,0.16 0.4,0.288 0.432,0.384 -0.16,0.64 -0.544,1.52 -1.152,2.64 -0.576,1.088 -1.2,2.24 -1.872,3.456 -0.672,1.216 -1.296,2.4 -1.872,3.552 -0.576,1.12 -0.912,2.016 -1.008,2.688 1.568,-2.144 3.04,-4.08 4.416,-5.808 1.376,-1.76 2.672,-3.264 3.888,-4.512 1.216,-1.248 2.336,-2.208 3.36,-2.88 1.0558,-0.672 2.0478,-1.008 2.9758,-1.008 0.64,0 1.232,0.176 1.776,0.528 0.576,0.32 0.976,0.8 1.2,1.44 -0.288,0.96 -0.768,2.112 -1.44,3.456 -0.64,1.344 -1.296,2.768 -1.968,4.272 -0.672,1.472 -1.28,2.928 -1.824,4.368 -0.512,1.44 -0.7678,2.736 -0.7678,3.888 0,0.672 0.096,1.12 0.2878,1.344 0.192,0.192 0.464,0.288 0.816,0.288 0.384,0 0.736,-0.064 1.056,-0.192 0.352,-0.16 0.608,-0.24 0.768,-0.24 0.192,0.128 0.304,0.288 0.336,0.48 0.032,0.192 0.048,0.368 0.048,0.528 -0.64,0.512 -1.296,0.928 -1.968,1.248 -0.672,0.352 -1.4238,0.528 -2.2558,0.528 -0.768,0 -1.408,-0.128 -1.92,-0.384 -0.48,-0.256 -0.88,-0.608 -1.2,-1.056 -0.32,-0.448 -0.544,-0.96 -0.672,-1.536 -0.128,-0.576 -0.192,-1.2 -0.192,-1.872 0,-1.088 0.144,-2.16 0.432,-3.216 0.288,-1.088 0.624,-2.112 1.008,-3.072 0.416,-0.992 0.848,-1.904 1.296,-2.736 0.448,-0.864 0.832,-1.632 1.152,-2.304 z m 11.3648,28.608 c -0.8,-0.32 -1.28,-0.928 -1.44,-1.824 -0.128,-0.864 -0.672,-1.568 -1.632,-2.112 0.256,-1.632 0.544,-3.28 0.864,-4.944 0.32,-1.664 0.72,-3.552 1.2,-5.664 0.512,-2.144 1.136,-4.624 1.872,-7.44 0.768,-2.848 1.728,-6.288 2.88,-10.32 -1.056,0 -1.888,0.016 -2.496,0.048 -0.608,0.032 -1.2,0.096 -1.776,0.192 -0.128,-0.128 -0.24,-0.304 -0.336,-0.528 -0.064,-0.224 -0.096,-0.432 -0.096,-0.624 0.32,-0.128 0.976,-0.288 1.968,-0.48 0.992,-0.224 2.08,-0.416 3.264,-0.576 0.768,-2.432 1.648,-4.608 2.64,-6.528 0.992,-1.952 2.064,-3.616 3.216,-4.992 1.152,-1.376 2.368,-2.432 3.648,-3.168 1.28,-0.736 2.576,-1.104 3.888,-1.104 0.384,0 0.752,0.032 1.104,0.096 0.352,0.032 0.624,0.048 0.816,0.048 0.288,-0.224 0.672,-0.416 1.152,-0.576 0.48,-0.192 0.896,-0.288 1.248,-0.288 0.384,0 0.88,0.208 1.488,0.624 -0.256,0.448 -0.528,1.056 -0.816,1.824 -0.288,0.768 -0.528,1.52 -0.72,2.256 -0.8,2.368 -1.648,3.904 -2.544,4.608 -0.352,0 -0.544,-0.464 -0.576,-1.392 -0.032,-0.672 -0.128,-1.328 -0.288,-1.968 -0.128,-0.288 -0.224,-0.544 -0.288,-0.768 -0.032,-0.224 -0.048,-0.512 -0.048,-0.864 0,-0.192 0.016,-0.416 0.048,-0.672 0.032,-0.288 0.096,-0.752 0.192,-1.392 -0.544,0 -1.152,0.336 -1.824,1.008 -0.64,0.672 -1.328,1.632 -2.064,2.88 -0.704,1.216 -1.424,2.672 -2.16,4.368 -0.736,1.696 -1.44,3.568 -2.112,5.616 l 4.032,-0.144 c 0.16,0.16 0.288,0.528 0.384,1.104 0.128,0.544 0.208,1.12 0.24,1.728 l -5.28,-0.288 c -1.216,3.616 -2.352,7.072 -3.408,10.368 -1.056,3.296 -2,6.336 -2.832,9.12 -0.832,2.784 -1.552,5.264 -2.16,7.44 -0.576,2.208 -0.992,3.984 -1.248,5.328 z M 141.946,44.56 c -0.736,2.336 -1.472,4.464 -2.208,6.384 -0.736,1.92 -1.52,3.68 -2.352,5.28 -0.832,1.632 -1.728,3.12 -2.688,4.464 -0.96,1.376 -2.016,2.672 -3.168,3.888 -1.472,1.536 -2.992,2.704 -4.56,3.504 -1.568,0.832 -3.136,1.248 -4.704,1.248 -0.8,0 -1.6,-0.096 -2.4,-0.288 -0.768,-0.16 -1.488,-0.4 -2.16,-0.72 -0.704,-0.288 -1.312,-0.64 -1.824,-1.056 -0.544,-0.384 -0.928,-0.8 -1.152,-1.248 0,-0.384 0.224,-0.72 0.672,-1.008 0.384,0.352 0.704,0.624 0.96,0.816 0.256,0.192 0.512,0.352 0.768,0.48 0.224,0.128 0.48,0.208 0.768,0.24 0.256,0.032 0.56,0.048 0.912,0.048 1.824,0 3.6,-0.544 5.328,-1.632 1.76,-1.056 3.408,-2.576 4.944,-4.56 1.568,-1.952 2.992,-4.336 4.272,-7.152 1.28,-2.784 2.368,-5.904 3.264,-9.36 -0.416,0.64 -0.928,1.424 -1.536,2.352 -0.608,0.928 -1.28,1.856 -2.016,2.784 -0.736,0.896 -1.504,1.712 -2.304,2.448 -0.768,0.736 -1.52,1.232 -2.256,1.488 -0.512,-0.032 -1.056,-0.144 -1.632,-0.336 -0.544,-0.16 -1.072,-0.4 -1.584,-0.72 -0.48,-0.32 -0.912,-0.704 -1.296,-1.152 -0.384,-0.448 -0.64,-0.96 -0.768,-1.536 0,-0.928 0.032,-1.664 0.096,-2.208 0.064,-0.576 0.176,-1.2 0.336,-1.872 0.288,-1.216 0.704,-2.592 1.248,-4.128 0.576,-1.536 1.232,-3.04 1.968,-4.512 0.768,-1.504 1.6,-2.896 2.496,-4.176 0.928,-1.312 1.888,-2.336 2.88,-3.072 0.256,0 0.576,0.032 0.96,0.096 0.384,0.032 0.784,0.112 1.2,0.24 0.416,0.128 0.816,0.288 1.2,0.48 0.384,0.16 0.72,0.384 1.008,0.672 -0.352,0.32 -1.12,1.392 -2.304,3.216 -1.184,1.824 -2.496,4.448 -3.936,7.872 -0.16,0.352 -0.352,0.864 -0.576,1.536 -0.224,0.672 -0.448,1.376 -0.672,2.112 -0.192,0.736 -0.368,1.456 -0.528,2.16 -0.16,0.704 -0.24,1.264 -0.24,1.68 0,0.256 0.032,0.448 0.096,0.576 0.096,0.128 0.176,0.224 0.24,0.288 0.576,-0.096 1.344,-0.56 2.304,-1.392 0.96,-0.864 2.048,-2.192 3.264,-3.984 0.768,-1.152 1.472,-2.288 2.112,-3.408 0.64,-1.152 1.264,-2.304 1.872,-3.456 0.64,-1.152 1.296,-2.336 1.968,-3.552 0.672,-1.216 1.392,-2.464 2.16,-3.744 0.416,0 0.864,0.048 1.344,0.144 0.48,0.096 0.944,0.224 1.392,0.384 0.448,0.128 0.832,0.288 1.152,0.48 0.352,0.16 0.608,0.336 0.768,0.528 -0.992,2.112 -1.92,4.176 -2.784,6.192 -0.864,2.016 -1.632,4.08 -2.304,6.192 z"
     fill="#222222"
     id="path36"
     style="filter:url(#filter0_d)"
     sodipodi:nodetypes="scccccscsccsccccsscsccsscsccscccsscssscsccccsscccccsccssccccssccccccccscccccccccccccsccccccccsscccsssscccscccscscccccscsccsccscssscccccccscccsccccccssscccscscccccsccccscccccsscccsccccscccccsccsccccscccccsccccccccsccscscssccccccscscccsc" />
  <path
     d="m 178.871,19.648 c 0.096,0.544 0.16,0.928 0.192,1.152 0.064,0.192 0.096,0.464 0.096,0.816 0,1.056 -0.24,2.048 -0.72,2.976 -0.448,0.896 -1.072,1.536 -1.872,1.92 -0.64,-0.864 -1.424,-1.6 -2.352,-2.208 -0.928,-0.64 -1.952,-1.152 -3.072,-1.536 -1.088,-0.416 -2.224,-0.72 -3.408,-0.912 -1.184,-0.192 -2.336,-0.288 -3.456,-0.288 -1.12,0 -2.176,0.096 -3.168,0.288 -0.96,0.16 -1.824,0.4 -2.592,0.72 -0.736,0.288 -1.328,0.656 -1.776,1.104 -0.416,0.448 -0.624,0.96 -0.624,1.536 0.096,0.704 0.528,1.424 1.296,2.16 0.768,0.704 1.712,1.408 2.832,2.112 1.12,0.672 2.352,1.344 3.696,2.016 1.376,0.672 2.72,1.312 4.032,1.92 1.632,0.768 3.04,1.488 4.224,2.16 1.184,0.64 2.16,1.36 2.928,2.16 0.768,0.768 1.344,1.648 1.728,2.64 0.384,0.992 0.576,2.192 0.576,3.6 0,1.632 -0.272,3.168 -0.816,4.608 -0.544,1.408 -1.344,2.64 -2.4,3.696 -1.024,1.056 -2.272,1.872 -3.744,2.448 -1.472,0.608 -3.12,0.912 -4.944,0.912 -1.792,0 -3.728,-0.272 -5.808,-0.816 -2.08,-0.544 -4.032,-1.296 -5.856,-2.256 -1.792,-0.928 -3.296,-2 -4.512,-3.216 -1.184,-1.248 -1.776,-2.56 -1.776,-3.936 0,-0.64 0.176,-1.456 0.528,-2.448 0.384,-0.992 1.056,-2.032 2.016,-3.12 0.096,0.96 0.608,2.096 1.536,3.408 0.96,1.312 2.384,2.528 4.272,3.648 1.76,1.024 3.568,1.776 5.424,2.256 1.888,0.448 3.648,0.672 5.28,0.672 1.792,0 3.248,-0.224 4.368,-0.672 1.12,-0.448 2,-0.976 2.64,-1.584 0.64,-0.64 1.088,-1.28 1.344,-1.92 0.256,-0.64 0.4,-1.152 0.432,-1.536 -0.032,-0.64 -0.336,-1.248 -0.912,-1.824 -0.544,-0.608 -1.296,-1.184 -2.256,-1.728 -0.928,-0.576 -2.016,-1.152 -3.264,-1.728 -1.248,-0.576 -2.544,-1.152 -3.888,-1.728 -2.016,-0.896 -3.76,-1.728 -5.232,-2.496 -1.44,-0.8 -2.64,-1.6 -3.6,-2.4 -0.928,-0.832 -1.616,-1.696 -2.064,-2.592 -0.416,-0.896 -0.624,-1.92 -0.624,-3.072 0,-1.792 0.544,-3.488 1.632,-5.088 1.088,-1.6 2.656,-2.816 4.704,-3.648 1.024,-0.448 2.112,-0.768 3.264,-0.96 1.184,-0.192 2.336,-0.288 3.456,-0.288 2.112,0 4.176,0.288 6.192,0.864 2.016,0.576 4.032,1.312 6.048,2.208 z m 1.745,29.28 c 0,-1.408 0.336,-3.376 1.008,-5.904 0.672,-2.56 1.616,-5.536 2.832,-8.928 1.984,-5.408 3.84,-9.904 5.568,-13.488 1.76,-3.616 3.472,-6.432 5.136,-8.448 0.384,0.064 0.848,0.224 1.392,0.48 0.576,0.256 1.136,0.544 1.68,0.864 0.544,0.288 1.024,0.592 1.44,0.912 0.448,0.32 0.736,0.576 0.864,0.768 -2.496,2.944 -4.688,6.112 -6.576,9.504 -1.888,3.392 -3.616,7.28 -5.184,11.664 -1.344,3.776 -2.368,7.184 -3.072,10.224 -0.704,3.008 -1.056,5.52 -1.056,7.536 0,0.544 0,0.88 0,1.008 0,0.128 0.016,0.256 0.048,0.384 -0.448,-0.064 -0.832,-0.176 -1.152,-0.336 -0.32,-0.16 -0.528,-0.352 -0.624,-0.576 -0.064,-0.16 -0.24,-0.4 -0.528,-0.72 -0.288,-0.288 -0.544,-0.512 -0.768,-0.672 -0.288,-0.192 -0.528,-0.688 -0.72,-1.488 -0.192,-0.832 -0.288,-1.76 -0.288,-2.784 z m 16.868,4.752 c -1.824,-0.192 -3.28,-0.992 -4.368,-2.4 -1.088,-1.408 -1.632,-3.2 -1.632,-5.376 0,-1.28 0.192,-2.608 0.576,-3.984 0.384,-1.376 0.928,-2.704 1.632,-3.984 0.704,-1.312 1.536,-2.544 2.496,-3.696 0.96,-1.152 2,-2.144 3.12,-2.976 1.76,-1.312 3.408,-1.968 4.944,-1.968 1.024,0.544 2.032,1.68 3.024,3.408 0.16,0 0.304,0 0.432,0 0.128,-0.032 0.272,-0.048 0.432,-0.048 1.696,0 2.544,1.504 2.544,4.512 0,2.016 -0.336,3.936 -1.008,5.76 -0.64,1.792 -1.552,3.424 -2.736,4.896 -1.152,1.472 -2.544,2.72 -4.176,3.744 -1.6,0.992 -3.36,1.696 -5.28,2.112 z m 2.448,-15.12 c -0.544,0.736 -1.056,1.536 -1.536,2.4 -0.48,0.864 -0.896,1.744 -1.248,2.64 -0.352,0.864 -0.624,1.712 -0.816,2.544 -0.192,0.8 -0.288,1.52 -0.288,2.16 0,0.768 0.128,1.504 0.384,2.208 0.256,0.704 0.544,1.104 0.864,1.2 1.44,-0.32 2.752,-0.912 3.936,-1.776 1.216,-0.896 2.256,-2 3.12,-3.312 0.896,-1.312 1.584,-2.8 2.064,-4.464 0.512,-1.664 0.768,-3.44 0.768,-5.328 0,-0.832 -0.048,-1.488 -0.144,-1.968 -0.096,-0.48 -0.256,-0.896 -0.48,-1.248 -1.408,0.416 -2.672,1.088 -3.792,2.016 -1.088,0.928 -2.032,1.904 -2.832,2.928 z m 15.439,-4.944 c -0.16,-0.192 -0.304,-0.592 -0.432,-1.2 -0.128,-0.64 -0.192,-1.184 -0.192,-1.632 0.832,0.064 1.632,0.128 2.4,0.192 0.768,0.032 1.472,0.064 2.112,0.096 0.48,-0.96 0.992,-1.904 1.536,-2.832 0.576,-0.96 1.12,-1.824 1.632,-2.592 0.544,-0.8 1.04,-1.472 1.488,-2.016 0.48,-0.544 0.848,-0.896 1.104,-1.056 0.32,0 0.72,0.064 1.2,0.192 0.512,0.096 1.024,0.24 1.536,0.432 0.512,0.16 0.976,0.336 1.392,0.528 0.416,0.192 0.704,0.384 0.864,0.576 -0.96,1.216 -1.792,2.352 -2.496,3.408 -0.672,1.024 -1.408,2.208 -2.208,3.552 0.64,0 1.28,-0.016 1.92,-0.048 0.672,-0.032 1.344,-0.08 2.016,-0.144 0.16,0.16 0.288,0.368 0.384,0.624 0.096,0.224 0.144,0.464 0.144,0.72 -1.568,0.576 -3.472,0.896 -5.712,0.96 -0.8,1.536 -1.52,3.072 -2.16,4.608 -0.608,1.504 -1.136,2.96 -1.584,4.368 -0.416,1.408 -0.752,2.736 -1.008,3.984 -0.224,1.248 -0.336,2.368 -0.336,3.36 0,1.408 0.528,2.192 1.584,2.352 0.96,-0.128 1.872,-0.368 2.736,-0.72 0.864,-0.352 1.632,-0.8 2.304,-1.344 0.192,0.288 0.304,0.528 0.336,0.72 -0.192,0.288 -0.528,0.624 -1.008,1.008 -0.448,0.384 -0.944,0.752 -1.488,1.104 -0.544,0.384 -1.072,0.704 -1.584,0.96 -0.512,0.256 -0.896,0.4 -1.152,0.432 -0.8,-0.032 -1.6,-0.208 -2.4,-0.528 -0.8,-0.32 -1.536,-0.72 -2.208,-1.2 -0.64,-0.48 -1.168,-1.008 -1.584,-1.584 -0.416,-0.608 -0.624,-1.2 -0.624,-1.776 0,-0.768 0.096,-1.728 0.288,-2.88 0.224,-1.184 0.528,-2.464 0.912,-3.84 0.384,-1.376 0.832,-2.816 1.344,-4.32 0.512,-1.504 1.072,-2.992 1.68,-4.464 z m 13.995,17.568 c 0,-1.12 0.112,-2.432 0.336,-3.936 0.224,-1.536 0.544,-3.168 0.96,-4.896 0.448,-1.728 0.96,-3.536 1.536,-5.424 0.608,-1.888 1.28,-3.776 2.016,-5.664 0.64,-1.696 1.376,-3.408 2.208,-5.136 0.864,-1.728 1.792,-3.424 2.784,-5.088 0.992,-1.664 2.016,-3.248 3.072,-4.752 1.088,-1.504 2.176,-2.88 3.264,-4.128 0.512,0 1.056,0.064 1.632,0.192 0.608,0.128 1.184,0.304 1.728,0.528 0.576,0.192 1.088,0.432 1.536,0.72 0.48,0.288 0.864,0.576 1.152,0.864 -2.4,2.464 -4.56,4.96 -6.48,7.488 -1.92,2.496 -3.44,4.848 -4.56,7.056 -0.608,1.216 -1.168,2.352 -1.68,3.408 -0.48,1.056 -0.928,2.112 -1.344,3.168 -0.416,1.024 -0.8,2.064 -1.152,3.12 -0.32,1.024 -0.624,2.112 -0.912,3.264 6.144,-7.84 10.704,-11.76 13.68,-11.76 0.832,0 1.728,0.272 2.688,0.816 0.96,0.544 1.808,1.28 2.544,2.208 -0.992,1.088 -2.016,2.4 -3.072,3.936 -1.056,1.536 -2.032,3.088 -2.928,4.656 -0.864,1.536 -1.584,2.976 -2.16,4.32 -0.544,1.312 -0.816,2.288 -0.816,2.928 0,0.32 0.048,0.544 0.144,0.672 0.096,0.096 0.304,0.144 0.624,0.144 0.48,0 0.864,-0.064 1.152,-0.192 0.288,-0.128 0.464,-0.192 0.528,-0.192 0.16,0.256 0.256,0.432 0.288,0.528 0.032,0.096 0.048,0.176 0.048,0.24 0,0.128 -0.192,0.32 -0.576,0.576 -0.384,0.224 -0.848,0.464 -1.392,0.72 -0.512,0.224 -1.024,0.432 -1.536,0.624 -0.512,0.192 -0.896,0.288 -1.152,0.288 -0.32,0 -0.64,-0.096 -0.96,-0.288 -0.32,-0.16 -0.608,-0.384 -0.864,-0.672 -0.224,-0.288 -0.416,-0.608 -0.576,-0.96 -0.128,-0.352 -0.192,-0.72 -0.192,-1.104 0,-0.48 0.128,-1.184 0.384,-2.112 0.288,-0.96 0.672,-2.064 1.152,-3.312 0.48,-1.28 1.056,-2.672 1.728,-4.176 0.672,-1.504 1.392,-3.04 2.16,-4.608 0,-0.128 -0.064,-0.192 -0.192,-0.192 -0.096,0 -0.352,0.128 -0.768,0.384 -0.384,0.256 -0.752,0.512 -1.104,0.768 -1.152,0.864 -2.32,1.936 -3.504,3.216 -1.152,1.248 -2.288,2.624 -3.408,4.128 -1.088,1.504 -2.128,3.104 -3.12,4.8 -0.96,1.664 -1.792,3.344 -2.496,5.04 -0.096,0.224 -0.24,0.432 -0.432,0.624 -0.192,0.192 -0.352,0.288 -0.48,0.288 -0.096,0 -0.24,-0.112 -0.432,-0.336 -0.16,-0.224 -0.32,-0.512 -0.48,-0.864 -0.128,-0.32 -0.256,-0.656 -0.384,-1.008 -0.128,-0.352 -0.192,-0.656 -0.192,-0.912 z"
     fill="#ab7b60"
     id="path38"
     style="filter:url(#filter0_d)" />
  <defs
     id="defs57">
    <rect
       x="130.5"
       y="-165"
       width="124.5"
       height="40"
       id="rect37294" />
    <rect
       x="-28.284271"
       y="-166.8772"
       width="294.15642"
       height="73.539105"
       id="rect3839" />
    <filter
       id="filter0_d"
       x="19.2613"
       y="12.16"
       width="239.113"
       height="65.168"
       filterUnits="userSpaceOnUse"
       color-interpolation-filters="sRGB">
      <feFlood
         flood-opacity="0"
         result="BackgroundImageFix"
         id="feFlood42" />
      <feColorMatrix
         in="SourceAlpha"
         type="matrix"
         values="0 0 0 0 0 0 0 0 0 0 0 0 0 0 0 0 0 0 127 0"
         id="feColorMatrix44" />
      <feOffset
         dy="4"
         id="feOffset46" />
      <feGaussianBlur
         stdDeviation="2"
         id="feGaussianBlur48" />
      <feColorMatrix
         type="matrix"
         values="0 0 0 0 0 0 0 0 0 0 0 0 0 0 0 0 0 0 0.25 0"
         id="feColorMatrix50" />
      <feBlend
         mode="normal"
         in2="BackgroundImageFix"
         result="effect1_dropShadow"
         id="feBlend52" />
      <feBlend
         mode="normal"
         in="SourceGraphic"
         in2="effect1_dropShadow"
         result="shape"
         id="feBlend54" />
    </filter>
    <rect
       x="-28.284271"
       y="-166.8772"
       width="294.15642"
       height="73.539105"
       id="rect39142" />
    <rect
       x="-28.284271"
       y="-166.8772"
       width="294.15643"
       height="73.539108"
       id="rect39142-3" />
    <rect
       x="-28.284271"
       y="-166.8772"
       width="294.15643"
       height="73.539108"
       id="rect39142-0" />
    <rect
       x="-28.284271"
       y="-166.8772"
       width="294.15643"
       height="73.539108"
       id="rect39142-0-9" />
    <rect
       x="-28.284271"
       y="-166.8772"
       width="294.15643"
       height="73.539108"
       id="rect39142-0-9-0" />
    <rect
       x="-28.284271"
       y="-166.8772"
       width="294.15643"
       height="73.539108"
       id="rect39142-0-9-0-5" />
    <rect
       x="-28.284271"
       y="-166.8772"
       width="294.15643"
       height="73.539108"
       id="rect39142-0-9-0-5-7" />
    <rect
       x="-28.284271"
       y="-166.8772"
       width="294.15643"
       height="73.539108"
       id="rect39142-0-4" />
  </defs>
  <text
     xml:space="preserve"
     id="text3837"
     style="font-weight:bold;font-size:24px;line-height:1.25;font-family:sans-serif;-inkscape-font-specification:'sans-serif, Bold Italic';font-variant-ligatures:none;white-space:pre;shape-inside:url(#rect3839);fill:#222222;fill-opacity:1;font-style:italic;font-stretch:normal;font-variant:normal;font-variant-caps:normal;font-variant-numeric:normal;font-variant-east-asian:normal"
     transform="matrix(1.4895459,0,0,2.3288039,13.261721,217.76034)"><tspan
       x="-28.285156"
       y="-145.64258"
       id="tspan146157">Comfy</tspan></text>
  <text
     xml:space="preserve"
     id="text37292"
     style="line-height:1.25;font-family:sans-serif;font-size:24px;-inkscape-font-specification:'sans-serif, Bold';font-variant-ligatures:none;font-weight:bold;white-space:pre;shape-inside:url(#rect37294)" />
  <text
     xml:space="preserve"
     id="text39140"
     style="font-weight:normal;font-size:24px;line-height:1.25;font-family:'Freehand521 BT';-inkscape-font-specification:'Freehand521 BT, Normal';font-variant-ligatures:none;white-space:pre;shape-inside:url(#rect39142);fill:#222222;fill-opacity:1;font-style:normal;font-stretch:normal;font-variant:normal;font-variant-caps:normal;font-variant-numeric:normal;font-variant-east-asian:normal"
     transform="matrix(1.4895459,0,0,2.3288039,-10.238279,153.26034)"><tspan
       x="-28.285156"
       y="-145.64258"
       id="tspan146159">Comf</tspan></text>
  <text
     xml:space="preserve"
     id="text39140-9"
     style="font-weight:bold;font-size:24px;line-height:1.25;font-family:sans-serif;-inkscape-font-specification:'sans-serif, Bold';font-variant-ligatures:none;white-space:pre;shape-inside:url(#rect39142-3);fill:#ab7b60;fill-opacity:1"
     transform="matrix(1.4895459,0,0,2.3288039,184.06904,255.37391)"><tspan
       x="-28.285156"
       y="-145.64258"
       id="tspan146161">Brew</tspan></text>
  <text
     xml:space="preserve"
     id="text39140-92"
     style="font-style:normal;font-variant:normal;font-weight:bold;font-stretch:normal;font-size:24px;line-height:1.25;font-family:'Traditional Arabic';-inkscape-font-specification:'Traditional Arabic, Bold';font-variant-ligatures:none;font-variant-caps:normal;font-variant-numeric:normal;font-variant-east-asian:normal;white-space:pre;shape-inside:url(#rect39142-0);fill:#222222;fill-opacity:1"
     transform="matrix(1.4895459,0,0,2.3288039,-76.131855,299.94602)"><tspan
       x="-28.285156"
       y="-147.85911"
       id="tspan146163">Comfy</tspan></text>
  <text
     xml:space="preserve"
     id="text39140-92-0"
     style="font-style:normal;font-variant:normal;font-weight:normal;font-stretch:normal;font-size:24px;line-height:1.25;font-family:'MV Boli';-inkscape-font-specification:'MV Boli, Normal';font-variant-ligatures:none;font-variant-caps:normal;font-variant-numeric:normal;font-variant-east-asian:normal;white-space:pre;shape-inside:url(#rect39142-0-9);fill:#222222;fill-opacity:1"
     transform="matrix(1.4895459,0,0,2.3288039,-136.02845,390.54695)"><tspan
       x="-28.285156"
       y="-145.64343"
       id="tspan146165">Comfy</tspan></text>
  <text
     xml:space="preserve"
     id="text39140-92-0-1"
     style="font-style:italic;font-variant:normal;font-weight:bold;font-stretch:normal;font-size:24px;line-height:1.25;font-family:IrisUPC;-inkscape-font-specification:'IrisUPC, Bold Italic';font-variant-ligatures:none;font-variant-caps:normal;font-variant-numeric:normal;font-variant-east-asian:normal;white-space:pre;shape-inside:url(#rect39142-0-9-0);fill:#222222;fill-opacity:1"
     transform="matrix(1.4895459,0,0,2.3288039,-52.59739,430.63613)"><tspan
       x="-28.285156"
       y="-144.567"
       id="tspan146167">Comfy</tspan></text>
  <text
     xml:space="preserve"
     id="text39140-92-0-1-6"
     style="font-style:italic;font-variant:normal;font-weight:bold;font-stretch:normal;font-size:24px;line-height:1.25;font-family:'Times New Roman';-inkscape-font-specification:'Times New Roman, Bold Italic';font-variant-ligatures:none;font-variant-caps:normal;font-variant-numeric:normal;font-variant-east-asian:normal;white-space:pre;shape-inside:url(#rect39142-0-9-0-5);fill:#222222;fill-opacity:1"
     transform="matrix(1.4895459,0,0,2.3288039,-24.474456,501.95829)"><tspan
       x="-28.285156"
       y="-145.67684"
       id="tspan146169">Comfy</tspan></text>
  <text
     xml:space="preserve"
     id="text39140-92-0-1-6-1"
     style="font-style:normal;font-variant:normal;font-weight:bold;font-stretch:normal;font-size:24px;line-height:1.25;font-family:Vijaya;-inkscape-font-specification:'Vijaya, Bold';font-variant-ligatures:none;font-variant-caps:normal;font-variant-numeric:normal;font-variant-east-asian:normal;white-space:pre;shape-inside:url(#rect39142-0-9-0-5-7);fill:#222222;fill-opacity:1"
     transform="matrix(1.4895459,0,0,2.3288039,85.13146,295.14764)"><tspan
       x="-28.285156"
       y="-145.67736"
       id="tspan146171">Comfy</tspan></text>
  <text
     xml:space="preserve"
     id="text39140-92-8"
     style="font-style:normal;font-variant:normal;font-weight:bold;font-stretch:normal;font-size:24px;line-height:1.25;font-family:'Segoe Script';-inkscape-font-specification:'Segoe Script, Bold';font-variant-ligatures:none;font-variant-caps:normal;font-variant-numeric:normal;font-variant-east-asian:normal;white-space:pre;shape-inside:url(#rect39142-0-4);fill:#222222;fill-opacity:1"
     transform="matrix(1.4895459,0,0,2.3288039,-139.69073,224.63267)"><tspan
       x="-28.285156"
       y="-145.74045"
       id="tspan146173">Comfy</tspan></text>
  <path
     style="fill:#000000;fill-opacity:0;stroke-width:0.5"
     d="m 145.25,-104.25 v -20 h 6.64406 c 5.89577,0 6.89531,0.1267 8.875,1.125 3.07715,1.55172 4.48094,4.3703 4.48094,8.997 0,3.66512 -0.76418,6.09591 -2.36407,7.51993 -0.99524,0.88584 -0.9909,0.9031 0.6362,2.5302 2.08094,2.08094 2.87231,5.013613 2.64715,9.809868 -0.22763,4.849064 -1.44959,7.306794 -4.41165,8.873167 -1.96529,1.039272 -2.82617,1.144835 -9.33627,1.144835 H 145.25 Z m 13.47211,12.527889 c 1.93019,-1.930192 1.93019,-7.125586 0,-9.055779 -0.74679,-0.74679 -1.66747,-0.97211 -3.97211,-0.97211 h -3 v 5.5 5.5 h 3 c 2.30464,0 3.22532,-0.225321 3.97211,-0.972111 z m -0.1476,-18.879099 c 0.96596,-2.31185 0.58297,-5.09062 -0.8647,-6.27379 -0.69502,-0.56804 -1.92818,-0.875 -3.5152,-0.875 H 151.75 v 4.5 4.5 h 3.02551 c 3.01663,0 3.02779,-0.005 3.799,-1.85121 z"
     id="path145914" />
  <path
     style="fill:#000000;fill-opacity:0;stroke-width:0.5"
     d="m 145.25,-104.25 v -20 h 6.64406 c 5.89577,0 6.89531,0.1267 8.875,1.125 3.07715,1.55172 4.48094,4.3703 4.48094,8.997 0,3.66512 -0.76418,6.09591 -2.36407,7.51993 -0.99524,0.88584 -0.9909,0.9031 0.6362,2.5302 2.08094,2.08094 2.87231,5.013613 2.64715,9.809868 -0.22763,4.849064 -1.44959,7.306794 -4.41165,8.873167 -1.96529,1.039272 -2.82617,1.144835 -9.33627,1.144835 H 145.25 Z m 13.47211,12.527889 c 1.93019,-1.930192 1.93019,-7.125586 0,-9.055779 -0.74679,-0.74679 -1.66747,-0.97211 -3.97211,-0.97211 h -3 v 5.5 5.5 h 3 c 2.30464,0 3.22532,-0.225321 3.97211,-0.972111 z m -0.1476,-18.879099 c 0.96596,-2.31185 0.58297,-5.09062 -0.8647,-6.27379 -0.69502,-0.56804 -1.92818,-0.875 -3.5152,-0.875 H 151.75 v 4.5 4.5 h 3.02551 c 3.01663,0 3.02779,-0.005 3.799,-1.85121 z"
     id="path145953" />
  <path
     style="fill:#000000;fill-opacity:0;stroke-width:0.5"
     d="m 62.534307,-130.625 c 0.606721,-4.88125 1.257146,-10.16875 1.445389,-11.75 l 0.34226,-2.875 h -1.553199 -1.5532 l 0.307548,-2.625 c 0.434056,-3.70479 0.527666,-3.875 2.131126,-3.875 1.381263,0 1.458745,-0.12942 2.046519,-3.41841 1.117434,-6.25277 3.045151,-8.10316 8.82845,-8.47431 l 3.719685,-0.23872 -0.291914,2.44072 c -0.438532,3.66661 -0.457672,3.69072 -2.929752,3.69072 -2.574925,0 -3.460635,0.92831 -3.935701,4.125 l -0.278647,1.875 h 2.724473 2.724474 l -0.287396,2.125 c -0.612631,4.52978 -0.498555,4.375 -3.224422,4.375 -2.16753,0 -2.511634,0.14212 -2.72385,1.125 -0.221949,1.02795 -2.77615,21.32189 -2.77615,22.05739 0,0.17469 -1.309235,0.31761 -2.909411,0.31761 h -2.909411 z"
     id="path145992" />
</svg>
